<svg width="38" height="32" viewBox="0 0 38 32" fill="none" xmlns="http://www.w3.org/2000/svg">
<path d="M33.0974 8.55852L31.4245 10.2017L34.6316 13.3518L31.429 16.4976L33.0996 18.1407L37.9751 13.3496L33.0974 8.55852ZM31.8964 19.3248L30.2257 17.6816L30.181 17.7255L22.3087 9.99519L18.6096 13.6308L16.8092 11.8624L24.9634 3.85529L30.219 9.01984L31.8852 7.38326L31.8919 7.37667L24.9634 0.568956L19.5668 5.8697L13.591 0L6.08093 7.37667L7.75381 9.01984L13.591 3.28633L17.8939 7.51287L13.4635 11.8624L18.6096 16.9171L22.3087 13.2815L28.5059 19.3687L27.3049 20.5505L22.709 16.034L21.0361 17.6772L25.6298 22.1915L24.572 23.224L19.9962 18.7294L18.3233 20.3726L22.8969 24.8694L21.716 26.027L17.1514 21.5435L15.4785 23.1866L20.0431 27.6702L18.9853 28.7115L7.75828 17.6838L6.0854 19.327L18.9875 32L25.4084 25.6909L27.3072 23.8369L27.3094 23.8391L28.9845 22.1981L28.9823 22.1959L31.9031 19.3292L31.8964 19.3248ZM6.55283 10.2017L4.87995 8.55852L0 13.3496L4.87772 18.1407L6.55059 16.4976L3.34574 13.3496L6.55283 10.2017Z" fill="white"/>
</svg>
