<svg width="185" height="32" viewBox="0 0 185 32" fill="none" xmlns="http://www.w3.org/2000/svg">
<path d="M33.0974 8.55852L31.4245 10.2017L34.6316 13.3518L31.429 16.4976L33.0996 18.1407L37.9751 13.3496L33.0974 8.55852ZM31.8964 19.3248L30.2257 17.6816L30.181 17.7255L22.3087 9.99519L18.6096 13.6308L16.8092 11.8624L24.9634 3.85529L30.219 9.01984L31.8852 7.38326L31.8919 7.37667L24.9634 0.568956L19.5668 5.8697L13.591 0L6.08093 7.37667L7.75381 9.01984L13.591 3.28633L17.8939 7.51287L13.4635 11.8624L18.6096 16.9171L22.3087 13.2815L28.5059 19.3687L27.3049 20.5505L22.709 16.034L21.0361 17.6772L25.6298 22.1915L24.572 23.224L19.9962 18.7294L18.3233 20.3726L22.8969 24.8694L21.716 26.027L17.1514 21.5435L15.4785 23.1866L20.0431 27.6702L18.9853 28.7115L7.75828 17.6838L6.0854 19.327L18.9875 32L25.4084 25.6909L27.3072 23.8369L27.3094 23.8391L28.9845 22.1981L28.9823 22.1959L31.9031 19.3292L31.8964 19.3248ZM6.55283 10.2017L4.87995 8.55852L0 13.3496L4.87772 18.1407L6.55059 16.4976L3.34574 13.3496L6.55283 10.2017Z" fill="white"/>
<path d="M58.2777 5.48438V13.4871H49.8708V5.48438H45.7065V26.5072H49.8708V16.8635H58.2777V26.5072H62.4733V5.48438H58.2777Z" fill="white"/>
<path d="M71.1418 10.6641C66.7449 10.6641 64.5509 12.3468 64.4369 15.8088H68.0443C68.2881 14.2843 69.243 13.5462 70.9539 13.5462C72.6402 13.5462 73.6869 14.1942 73.6869 15.2399C73.6869 16.3712 73.054 16.8018 70.9696 17.0873C66.604 17.6739 63.9292 18.2494 63.9292 22.4364C63.9292 25.0637 65.7273 26.5114 68.997 26.5114C70.9114 26.5114 72.5955 25.8787 73.6198 24.7781L73.7965 24.587L73.8144 24.8484C73.8457 25.3207 73.9307 26.1182 74.038 26.507H77.6633V16.5711C77.6611 12.4874 75.6505 10.6641 71.1418 10.6641ZM73.7495 20.4176C73.7182 22.3398 72.0274 23.8467 69.9117 23.8467C68.5363 23.8467 67.8095 23.2184 67.8095 22.0322C67.8095 20.6439 68.6727 19.9673 70.9964 19.5323C72.5687 19.2445 73.2239 19.0249 73.5907 18.6646L73.7875 18.4691L73.7495 20.4176Z" fill="white"/>
<path d="M88.244 10.6641C85.898 10.6641 84.2855 11.5076 83.3216 13.243L83.1091 13.6253V10.6641H79.4189V26.507H83.2992V17.4718C83.2992 15.0729 84.413 13.8537 86.6047 13.8537C88.698 13.8537 89.369 14.6138 89.369 16.9753V26.507H93.2805V15.6419C93.2783 12.5708 91.3505 10.6641 88.244 10.6641Z" fill="white"/>
<path d="M105.847 5.48462V13.2875L105.641 13.0063C104.501 11.4312 103.018 10.6623 101.122 10.6623C97.3151 10.6623 94.855 13.7136 94.855 18.4322C94.855 23.3398 97.4493 26.5097 101.468 26.5097C103.376 26.5097 104.763 25.787 105.7 24.2976L105.905 23.9746L105.941 26.5053H109.667V5.48242H105.847V5.48462ZM102.414 23.4452C100.287 23.4452 98.7979 21.4967 98.7979 18.7112C98.7979 15.4644 99.9899 13.885 102.446 13.885C104.807 13.885 106.002 15.5918 106.002 18.9595C106.002 21.5582 104.494 23.4452 102.414 23.4452Z" fill="white"/>
<path d="M122.75 17.979C121.976 17.6758 120.979 17.4232 119.923 17.153C119.34 17.008 118.74 16.8521 118.121 16.6785C116.593 16.2545 115.513 15.8767 115.513 14.8354C115.513 13.904 116.343 13.4537 118.058 13.4537C119.964 13.4537 120.811 14.0204 121.059 15.4703H124.792C124.524 12.1928 122.422 10.666 118.188 10.666C112.876 10.666 111.763 13.0693 111.763 15.0859C111.763 16.5643 112.366 17.6297 113.668 18.4359C114.788 19.1257 116.28 19.5606 118.814 20.1582C120.225 20.4877 121.395 20.8567 121.395 22.0056C121.395 23.0645 120.328 23.6971 118.537 23.6971C116.502 23.6971 115.265 22.8536 115.204 21.4345H111.201C111.329 24.5736 114.142 26.5155 118.57 26.5155C122.815 26.5155 125.246 24.7142 125.246 21.5729C125.239 19.7649 124.472 18.6578 122.75 17.979Z" fill="white"/>
<path d="M135.082 10.6643C133.078 10.6643 131.197 11.6396 130.605 12.9863L130.39 13.4783V5.48438H126.51V26.5072H130.39V17.472C130.39 15.1764 131.718 13.6387 133.696 13.6387C135.711 13.6387 136.46 14.4822 136.46 16.7559V26.5072H140.371V15.4224C140.369 12.5315 138.294 10.6643 135.082 10.6643Z" fill="white"/>
<path d="M148.968 10.6641C144.571 10.6641 142.377 12.3468 142.263 15.8088H145.871C146.115 14.2843 147.065 13.5462 148.776 13.5462C150.464 13.5462 151.511 14.1942 151.511 15.2399C151.511 16.3712 150.876 16.8018 148.794 17.0873C144.428 17.6739 141.753 18.2494 141.753 22.4364C141.753 25.0637 143.552 26.5114 146.819 26.5114C148.738 26.5114 150.42 25.8787 151.442 24.7781L151.623 24.587L151.641 24.8484C151.672 25.3207 151.757 26.1182 151.864 26.507H155.49V16.5711C155.488 12.4874 153.477 10.6641 148.968 10.6641ZM151.576 20.422C151.54 22.342 149.854 23.8489 147.738 23.8489C146.361 23.8489 145.636 23.2206 145.636 22.0344C145.636 20.6461 146.499 19.9695 148.821 19.5345C150.393 19.2467 151.05 19.0271 151.415 18.6668L151.614 18.4713L151.576 20.422Z" fill="white"/>
<path d="M171.76 10.6643H167.041L161.023 17.4544V5.48438H157.111V26.5072H161.023V21.7337L163.154 19.5721L166.607 26.5072H170.962L165.925 16.9536L171.76 10.6643Z" fill="white"/>
<path d="M177.495 23.5392C175.448 23.5392 174.039 22.0124 173.907 19.6487L173.903 19.5345H184.616C184.584 13.6494 182.169 10.6641 177.43 10.6641C172.796 10.6641 170.025 13.522 170.025 18.3087C170.025 23.7523 172.601 26.5114 177.683 26.5114C180.921 26.5114 183.403 24.765 184.352 21.8323H180.357C180.038 22.856 178.899 23.5392 177.495 23.5392ZM174.035 17.0895C174.191 15.0246 175.504 13.6385 177.307 13.6385C178.901 13.6385 180.541 14.7083 180.608 17.0961L180.612 17.2104H174.028L174.035 17.0895Z" fill="white"/>
</svg>

